PathFileType	4	(X/Y/Z)	Patient4_TMGait_0pt6_02_left_16.trc.trc
DataRate	CameraRate	NumFrames	NumMarkers	Units	OrigDataRate	OrigDataStartFrame	OrigNumFrames
80.459770114943	80.459770114943	6	33	mm	80.459770114943	106	       141
Frame#	Time	Sacral			L.Shoulder			Chest			R.Shoulder			Neck			R.ASIS			L.ASIS			R.Thigh.Superior			R.Thigh.Lateral			R.Thigh.Inferior			R.Patella			L.Thigh.Superior			L.Thigh.Lateral			L.Thigh.Inferior			L.Patella			L.Shank.Superior			L.Shank.Lateral			L.Shank.Inferior			R.Shank.Superior			R.Shank.Lateral			R.Shank.Inferior			R.Heel			R.Midfoot.Superior			R.Midfoot.Lateral			R.Toe			L.Heel			L.Midfoot.Lateral			L.Midfoot.Superior			L.Toe			L.Elbow			L.Wrist			R.Elbow			R.Wrist			
		X1	Y1	Z1	X2	Y2	Z2	X3	Y3	Z3	X4	Y4	Z4	X5	Y5	Z5	X6	Y6	Z6	X7	Y7	Z7	X8	Y8	Z8	X9	Y9	Z9	X10	Y10	Z10	X11	Y11	Z11	X12	Y12	Z12	X13	Y13	Z13	X14	Y14	Z14	X15	Y15	Z15	X16	Y16	Z16	X17	Y17	Z17	X18	Y18	Z18	X19	Y19	Z19	X20	Y20	Z20	X21	Y21	Z21	X22	Y22	Z22	X23	Y23	Z23	X24	Y24	Z24	X25	Y25	Z25	X26	Y26	Z26	X27	Y27	Z27	X28	Y28	Z28	X29	Y29	Z29	X30	Y30	Z30	X31	Y31	Z31	X32	Y32	Z32	X33	Y33	Z33	

106	20.945000000000	817.494488185489	1018.341348330471	529.996142821809	1006.062090558894	1438.372713455033	343.691142797174	1119.167971587602	1356.240959133049	490.829286848965	1062.591261580362	1434.396083877912	672.568233114998	1025.663189448029	1496.223850963432	495.189840677053	1047.173773851444	943.635896461538	631.455734609349	1017.757166886965	964.102774105942	359.027622744921	1070.855099217361	739.889327774100	598.776805650376	983.329713928888	635.070258256847	657.179415466241	1053.697560474521	581.016596210050	573.818168191981	1047.776779759462	495.046931138218	577.162167903412	1100.665155747621	794.280837303247	383.180269176955	1063.246013321321	667.141514145612	300.330812854205	1170.014965133719	610.243719058955	358.835041093779	1196.620518767376	534.468685381966	348.696836569681	1162.742147935784	458.987324914680	339.113565356064	1063.282164627877	353.197202687776	287.727618485188	1121.379720344835	233.757320078462	338.342799751140	1020.793334129766	407.534279091078	579.396428924450	948.587128623095	301.348637914378	636.044218232636	991.182987178417	209.624370333093	567.450621355503	855.482066245727	45.033467231701	529.829871915421	1029.364539317924	97.843775775880	561.842534381718	940.978767184465	37.431921272633	601.289444677512	1148.894892660966	41.211510662404	584.556421343822	995.951532203120	76.115716156205	374.342057253719	1065.189867979081	73.274826516495	290.791559058394	1150.831475575309	133.776244466075	312.634793585280	1274.082461233621	81.893665272287	276.417551194175	917.181581555199	1091.226012758393	235.957651216541	946.653216275230	833.224583379512	216.145243127073	1136.357908303080	1097.228999654157	795.306422501426	1360.556406841135	993.572561977724	720.665179783370	
107	20.957428571429	815.871875101603	1018.466915179688	530.494612465163	1004.425823718866	1438.656765443057	344.812184827743	1118.019384047450	1355.748524073514	491.146701167487	1062.488284958155	1433.552316489549	673.355681673882	1024.796740133740	1495.967689415279	496.459885161904	1045.574744320430	943.579708163119	631.391621578746	1015.821273917533	963.755666020876	358.777459675921	1067.806285454537	739.541550665705	598.771864678494	979.793850654374	635.004229811904	657.478934455117	1049.673142304714	580.584478676825	574.162129112949	1043.124272097222	494.583481663412	577.609568044790	1097.297111980857	793.160218405322	382.880241341697	1059.629488437729	666.289981138712	299.656644866513	1165.649924296221	608.913953080027	359.224533099262	1193.186231867627	535.484056074800	349.266448279638	1163.305459973554	460.707428214035	338.802732244176	1071.267355130864	349.184434028116	285.909989936117	1136.593294848562	233.277541630007	336.447651665519	1015.538064019997	407.160529963040	579.723837173087	942.568111833222	301.413649872429	636.235757347114	984.625127551482	209.443953289081	567.640494907268	848.036992583567	45.249092031952	529.899889376681	1022.029754799695	97.829576697238	561.908801492909	933.531550763765	37.460273601953	601.300352769998	1141.411690787387	41.036436007840	584.584374981722	1021.115056528737	68.083087570614	370.853013693057	1091.515396875228	69.212798540723	288.067574682476	1173.181309852810	134.694599775113	310.740014882394	1299.795794517687	89.978732916612	276.089922370233	909.687425856858	1093.338654733861	236.546947789240	931.175416228338	834.781430070608	216.567744685006	1143.449456863849	1098.305255008919	794.170652344248	1371.993623895714	1009.353319808222	715.189004194398	
108	20.969857142857	814.325070383778	1018.589722260913	530.794449068051	1002.915237297362	1438.978394752435	345.773860318013	1116.888477398675	1355.289356837191	491.380911328273	1062.242330601840	1432.703361588892	674.001370971421	1023.927051941582	1495.728520658534	497.589057359782	1043.997456073703	943.571946860093	631.296425740772	1013.914477166970	963.305951371617	358.473381899194	1064.814745683814	739.176495484121	598.882689305494	976.153761633881	634.958547195916	657.708399960032	1045.597755685931	580.146334236019	574.501720417241	1038.385367769542	494.143340214897	577.991282986149	1093.800536416027	791.735974128771	382.504678912096	1055.620960253590	665.212009187232	298.848793715574	1160.963223777017	607.252358479454	359.372182983417	1189.282122131498	536.145881132100	349.725013636348	1163.221928703841	462.305539918096	338.442518068658	1078.550463380036	345.671481049774	284.207506420618	1150.596244349624	233.595123291054	334.753543933865	1010.199259603513	406.803360497513	579.987972882869	936.491746425495	301.508673422552	636.384682344166	978.031120035370	209.294708591569	567.810647240482	840.586812236809	45.479952629203	529.974067051697	1014.696096680150	97.826367556242	561.983018403257	926.079154467681	37.493478528401	601.316558277074	1133.927800532728	40.876754441918	584.614933170131	1044.920255912470	61.864120654200	367.797783068055	1116.326527326014	66.536194630508	285.794068319809	1194.024299720168	136.525864189614	309.138258375891	1323.467545782246	98.565307116109	276.207806071657	902.406253658076	1095.599038390458	237.060128024567	916.564211660327	836.695370601412	217.236349463661	1149.937164701905	1099.388989077443	792.635228017778	1381.864747437338	1025.442752729880	709.541111835751	
109	20.982285714286	812.853928210286	1018.712352688089	530.905996427922	1001.528944004435	1439.331466751523	346.559105005731	1115.769520069248	1354.887593262905	491.534340653735	1061.826905728934	1431.887765233457	674.495880613158	1023.038913666965	1495.521081776825	498.550084809437	1042.451769154072	943.598475613093	631.161382417963	1012.077731104921	962.825512094225	358.116428391137	1061.873035230055	738.790097671372	599.058028973664	972.420071371036	634.937117005053	657.847213344073	1041.458834716752	579.703288045034	574.796063676682	1033.552021727620	493.723652391011	578.271957390341	1090.277345573541	790.146665767690	382.063737158150	1051.360864156058	663.994239149602	297.952936993361	1156.166610384115	605.428981741672	359.230026507707	1185.124716244084	536.555002866486	350.008063423943	1162.610669662928	463.783704432048	338.015953932311	1084.971788475219	342.705660513827	282.715083003322	1163.132471243793	234.585108940097	333.298936731236	1004.772821573951	406.466689598520	580.168043699527	930.357842648577	301.635911516019	636.480405978925	971.395970922699	209.175679962720	567.948422709360	833.128794445653	45.721789523842	530.050943737049	1007.358708171068	97.833429108714	562.062216069996	918.619988228941	37.530943967619	601.338980323908	1126.445425702350	40.736494400481	584.651529525759	1066.801549417149	57.384091856426	365.340548554588	1139.025130341230	65.073595861897	284.063517029547	1212.936813949915	139.038693467636	307.837647634546	1344.669189073745	107.225871077562	276.640880320111	895.373702824687	1097.980528644005	237.507513163979	902.848809339463	838.882856717981	218.123781974903	1155.793962086233	1100.484071769941	790.701135287628	1390.130406100573	1041.733400112083	703.765992071280	
110	20.994714285714	811.459504258161	1018.829452487323	530.840788020561	1000.251526717173	1439.703288248815	347.155742017492	1114.653541445578	1354.560970454905	491.606455952792	1061.221459517558	1431.136420834107	674.833422708933	1022.112456322558	1495.352612893346	499.320466098422	1040.950598118973	943.639636848228	630.976786443648	1010.348983081583	962.370421458739	357.707091036925	1058.969721156759	738.377332564994	599.228319812327	968.614999152614	634.939234718004	657.877597637906	1037.251372199904	579.253872266188	575.003129767063	1028.625755836169	493.317458089982	578.423547236567	1086.847784629474	788.529429183299	381.563353814880	1047.010633691636	662.711015880347	297.031849392843	1151.474320518857	603.598706113688	358.782644568648	1180.936996049355	536.798513062136	350.073077431580	1161.597304132880	465.117493762139	337.529291608834	1090.381869200397	340.282614672431	281.520272174398	1173.961230151851	236.048990528389	332.121452519745	999.263383867337	406.151233576316	580.249968797905	924.170670167361	301.794069396316	636.516047598537	964.717410836232	209.082112462960	568.043652967639	825.660672752678	45.968712957327	530.128611174409	1000.011359241272	97.847232086970	562.140272920106	911.152813997189	37.571125107846	601.367809264448	1118.965979924729	40.618500815962	584.696074753677	1086.202177197167	54.456840393963	363.607452111111	1159.031471798460	64.563830361353	282.937963144860	1229.512276072739	141.923026515727	306.843468976124	1363.009114178628	115.465203531583	277.255381552426	888.620090630660	1100.443699823550	237.895613936742	890.043367808247	841.258206269859	219.189145843179	1160.995315247809	1101.591818204158	788.387309973024	1396.767544642297	1058.106859057456	697.915079733102	
111	21.007142857143	810.145423631012	1018.928209766210	530.609039224133	999.055166229491	1440.075508050174	347.557307491744	1113.529124138608	1354.318627769735	491.593357683755	1060.414024512089	1430.468703265213	675.011783380391	1021.125112233796	1495.221601652963	499.884338577224	1039.508869562651	943.672785243567	630.733720099723	1008.761035377585	961.975525219234	357.245935994407	1056.093178815784	737.932255975143	599.318165869910	964.768392895695	634.959637772924	657.787085985181	1032.978983454590	578.792996007734	575.087507708759	1023.617111584301	492.914291219875	578.429849019496	1083.640736810913	787.005797070205	381.005659763401	1042.741559172140	661.417888895664	296.157685973788	1147.085890345066	601.886372327378	358.050989739956	1176.929354958701	536.935645175610	349.907412274480	1160.303754998816	466.254185506233	337.014517611175	1094.654334550417	338.348616283299	280.694998655803	1182.868915413015	237.731456362282	331.261441646655	993.682475523792	405.853509638846	580.227928618585	917.938039750649	301.978542740227	636.489593985727	957.995853536684	209.006128009328	568.090292699145	818.180864118360	46.213241005396	530.205259442283	992.647025712550	97.862010765573	562.209034146498	903.676805449875	37.611839268703	601.402880324549	1111.489734924906	40.524409128848	584.748554284202	1102.605550249930	52.806870555601	362.677519125439	1175.822009779187	64.681948787226	282.450387492515	1243.384448059475	144.815576604396	306.169075730480	1378.154137353517	122.757531388878	277.946852309317	882.168479948774	1102.938155286202	238.227303770974	878.150542673342	843.735040260881	220.380934277392	1165.521607956655	1102.707865314097	785.731615291625	1401.771995747834	1074.434836926474	692.046884765648	
